<svg xmlns="http://www.w3.org/2000/svg" width="22.784" height="21.775" viewBox="0 0 22.784 21.775">
  <path id="Star_Icon" data-name="Star Icon" d="M866.871,5677.871a1.529,1.529,0,0,0,1.454,1.057h5.988a1.075,1.075,0,0,1,.632,1.944l-4.844,3.52a1.53,1.53,0,0,0-.556,1.71l1.85,5.694a1.075,1.075,0,0,1-1.654,1.2l-4.844-3.52a1.528,1.528,0,0,0-1.8,0l-4.844,3.52a1.075,1.075,0,0,1-1.654-1.2l1.85-5.694a1.53,1.53,0,0,0-.555-1.71l-4.844-3.52a1.075,1.075,0,0,1,.632-1.944h5.988a1.529,1.529,0,0,0,1.454-1.057l1.85-5.694a1.075,1.075,0,0,1,2.045,0Z" transform="translate(-852.606 -5671.434)" fill="#f2bc3b"/>
</svg>
