<svg id="Lock_Icon" data-name="Lock Icon" xmlns="http://www.w3.org/2000/svg" width="42" height="51" viewBox="0 0 42 51">
  <g id="Shape" transform="translate(0 20)" fill="none" stroke="#267df4" stroke-width="3">
    <rect width="42" height="31" rx="4" stroke="none"/>
    <rect x="1.5" y="1.5" width="39" height="28" rx="2.5" fill="none"/>
  </g>
  <g id="Shape-2" data-name="Shape" transform="translate(5)" fill="none" stroke="#267df4" stroke-width="3">
    <path d="M15,0h2A15,15,0,0,1,32,15v8a0,0,0,0,1,0,0H0a0,0,0,0,1,0,0V15A15,15,0,0,1,15,0Z" stroke="none"/>
    <path d="M15,1.5h2A13.5,13.5,0,0,1,30.5,15v5A1.5,1.5,0,0,1,29,21.5H3A1.5,1.5,0,0,1,1.5,20V15A13.5,13.5,0,0,1,15,1.5Z" fill="none"/>
  </g>
  <g id="Shape-3" data-name="Shape" transform="translate(-255 -1122)" fill="none">
    <path d="M276,1127a11,11,0,0,1,11,11v7H265v-7A11,11,0,0,1,276,1127Z" stroke="none"/>
    <path d="M 275.9999694824219 1129.999755859375 C 271.5888366699219 1129.999755859375 268.0000610351563 1133.588500976563 268.0000610351563 1137.999633789063 L 268.0000610351563 1142.000122070313 L 283.9999694824219 1142.000122070313 L 283.9999694824219 1137.999633789063 C 283.9999694824219 1133.588500976563 280.4112243652344 1129.999755859375 275.9999694824219 1129.999755859375 M 275.9999694824219 1126.999755859375 C 282.0751342773438 1126.999755859375 286.9999694824219 1131.924926757813 286.9999694824219 1137.999633789063 L 286.9999694824219 1145.000122070313 L 265.0000610351563 1145.000122070313 L 265.0000610351563 1137.999633789063 C 265.0000610351563 1131.924926757813 269.9248962402344 1126.999755859375 275.9999694824219 1126.999755859375 Z" stroke="none" fill="#267df4"/>
  </g>
  <g id="Shape-4" data-name="Shape" transform="translate(13.136 30.086)" fill="none">
    <path d="M5.389,10.339.439,5.389A1.5,1.5,0,0,1,2.561,3.267L6.45,7.157,13.167.439A1.5,1.5,0,1,1,15.289,2.56L7.511,10.339a1.5,1.5,0,0,1-2.121,0Z" stroke="none"/>
    <path d="M 6.450044631958008 10.77759647369385 C 6.066198825836182 10.77759647369385 5.682352542877197 10.63136577606201 5.389429569244385 10.3387508392334 L 0.4394294321537018 5.388827800750732 C -0.1464936435222626 4.802827835083008 -0.1464936435222626 3.853366136550903 0.4394294321537018 3.267442941665649 C 0.7323524951934814 2.974558353424072 1.116198658943176 2.828116178512573 1.500054478645325 2.828116178512573 C 1.883910179138184 2.828116178512573 2.267775535583496 2.974558353424072 2.560737133026123 3.267442941665649 L 6.450044631958008 7.156750679016113 L 13.16719913482666 0.4388276636600494 C 13.46016025543213 0.1462892144918442 13.84400653839111 1.998197149077896e-05 14.2278528213501 1.998197149077896e-05 C 14.61169910430908 1.998197149077896e-05 14.99554443359375 0.1462892144918442 15.28850650787354 0.4388276636600494 C 15.87442970275879 1.024673819541931 15.87442970275879 1.975135326385498 15.28850650787354 2.560058355331421 L 7.51073694229126 10.3387508392334 C 7.217737197875977 10.63136577606201 6.833890914916992 10.77759647369385 6.450044631958008 10.77759647369385 Z" stroke="none" fill="#267df4"/>
  </g>
</svg>
