<svg xmlns="http://www.w3.org/2000/svg" width="14.404" height="14.403" viewBox="0 0 14.404 14.403">
  <path id="icon" d="M723.418,10337.8h-8.836a2.786,2.786,0,0,0-2.784,2.783v8.837a2.786,2.786,0,0,0,2.784,2.783h8.836a2.786,2.786,0,0,0,2.784-2.783v-8.837A2.786,2.786,0,0,0,723.418,10337.8Zm.877,1.61h.315v2.391l-2.408.008-.008-2.391ZM719,10342.59a2.41,2.41,0,1,1-2.41,2.41A2.418,2.418,0,0,1,719,10342.59Zm5.624,6.653a1.381,1.381,0,0,1-1.38,1.38h-8.512a1.381,1.381,0,0,1-1.38-1.38v-5.847h2a4.59,4.59,0,0,0-.29,1.6,3.938,3.938,0,1,0,7.877,0,4.587,4.587,0,0,0-.291-1.6h1.976Z" transform="translate(-711.798 -10337.798)" fill="#fff"/>
</svg>
