<svg xmlns="http://www.w3.org/2000/svg" width="15.204" height="11.993" viewBox="0 0 15.204 11.993">
  <path id="bird" d="M655,10340.823a6.368,6.368,0,0,1-1.792.477,3.05,3.05,0,0,0,1.372-1.675,6.366,6.366,0,0,1-1.981.734,3.162,3.162,0,0,0-2.277-.956,3.075,3.075,0,0,0-3.119,3.028,2.954,2.954,0,0,0,.081.689,8.946,8.946,0,0,1-6.43-3.164,2.951,2.951,0,0,0-.422,1.522,3,3,0,0,0,1.388,2.521,3.192,3.192,0,0,1-1.413-.379c0,.013,0,.024,0,.038a3.054,3.054,0,0,0,2.5,2.969,3.206,3.206,0,0,1-1.409.052,3.11,3.11,0,0,0,2.914,2.1,6.377,6.377,0,0,1-3.874,1.3,6.455,6.455,0,0,1-.744-.043,9.023,9.023,0,0,0,4.782,1.361,8.679,8.679,0,0,0,8.875-8.614c0-.131,0-.263-.009-.392A6.232,6.232,0,0,0,655,10340.823Z" transform="translate(-639.798 -10339.403)" fill="#fff"/>
</svg>
